<?xml version="1.0" standalone="no"?>
<!DOCTYPE svg PUBLIC "-//W3C//DTD SVG 20010904//EN"
 "http://www.w3.org/TR/2001/REC-SVG-20010904/DTD/svg10.dtd">
<svg version="1.0" xmlns="http://www.w3.org/2000/svg"
 width="512.000000pt" height="512.000000pt" viewBox="0 0 512.000000 512.000000"
 preserveAspectRatio="xMidYMid meet">
<metadata>
Created by potrace 1.11, written by Peter Selinger 2001-2013
</metadata>
<g transform="translate(0.000000,512.000000) scale(0.100000,-0.100000)"
fill="#000000" stroke="none">
<path d="M1825 5087 c-44 -11 -83 -24 -87 -31 -4 -6 -8 -7 -8 -2 0 5 -7 2 -17
-5 -9 -8 -18 -12 -20 -10 -5 4 -52 -14 -119 -45 -28 -13 -54 -24 -58 -24 -5 0
-20 -9 -36 -20 -15 -11 -31 -16 -35 -12 -4 4 -5 -5 -2 -19 5 -18 2 -31 -7 -39
-16 -12 -14 -55 8 -165 6 -33 12 -75 11 -92 0 -18 2 -33 6 -33 3 0 5 -10 6
-22 0 -13 3 -41 7 -63 24 -150 25 -141 -3 -163 -14 -11 -39 -32 -56 -46 -16
-14 -38 -29 -48 -32 -9 -3 -15 -10 -12 -15 4 -5 1 -9 -5 -9 -12 0 -112 -79
-118 -92 -2 -5 -10 -8 -17 -8 -7 0 -15 -4 -17 -8 -1 -4 -19 -20 -39 -35 l-36
-27 -111 49 c-61 27 -113 46 -116 43 -4 -3 -6 -1 -6 5 0 6 -20 16 -45 23 -26
7 -42 17 -38 23 3 5 2 7 -3 4 -5 -3 -30 5 -54 17 -25 13 -47 23 -50 24 -3 0
-13 4 -23 8 -14 5 -29 -4 -58 -35 -21 -22 -39 -45 -39 -49 0 -4 -8 -15 -17
-24 -39 -37 -53 -55 -53 -66 0 -7 -4 -12 -10 -12 -5 0 -10 -7 -10 -15 0 -9 -7
-18 -15 -21 -8 -4 -15 -10 -15 -15 0 -10 -61 -101 -73 -110 -5 -3 -8 -8 -7
-10 4 -9 -24 -59 -32 -59 -5 0 -6 -4 -3 -10 3 -5 1 -10 -5 -10 -6 0 -8 -4 -5
-10 3 -5 3 -10 -2 -10 -4 0 -14 -14 -22 -31 -15 -35 -31 -15 152 -203 182
-186 190 -195 182 -220 -3 -11 -13 -43 -21 -71 -8 -27 -17 -59 -20 -70 -3 -11
-7 -28 -7 -37 -1 -10 -4 -18 -8 -18 -4 0 -10 -17 -14 -37 -4 -21 -10 -42 -13
-48 -4 -5 -7 -14 -8 -20 -1 -5 -7 -30 -14 -55 -16 -62 -36 -90 -60 -85 -11 2
-22 -1 -25 -6 -4 -5 -11 -7 -16 -4 -5 4 -15 3 -21 -2 -15 -9 -20 -10 -49 -12
-13 -1 -18 -5 -13 -13 5 -10 4 -10 -5 -2 -9 8 -26 7 -64 -3 -29 -7 -61 -15
-72 -17 -11 -2 -54 -12 -95 -22 -41 -9 -80 -17 -87 -17 -7 0 -14 -6 -17 -14
-3 -7 0 -13 6 -13 7 0 7 -4 0 -12 -12 -16 -13 -396 -1 -420 6 -10 5 -19 -1
-23 -6 -4 -7 -12 -3 -18 7 -12 10 -29 14 -95 3 -39 15 -50 60 -57 19 -2 61 -9
94 -15 63 -11 222 -38 265 -45 93 -15 100 -19 100 -51 0 -13 5 -24 10 -24 6 0
10 -10 10 -23 0 -13 3 -27 7 -31 4 -3 8 -12 9 -19 1 -7 23 -72 49 -145 26 -74
49 -145 51 -158 5 -26 0 -33 -87 -125 -20 -22 -34 -39 -30 -39 3 0 -2 -5 -11
-11 -10 -5 -18 -14 -18 -19 0 -5 -10 -20 -23 -32 -12 -13 -44 -50 -72 -82 -27
-33 -57 -66 -67 -74 -21 -19 -18 -28 64 -150 37 -57 68 -106 68 -108 0 -2 8
-13 17 -23 10 -10 30 -34 45 -52 62 -79 111 -136 140 -166 26 -27 34 -30 46
-20 8 6 16 11 16 10 2 -6 46 10 46 17 0 4 18 13 40 20 22 7 40 18 40 23 0 6 3
7 7 4 3 -4 15 0 25 10 10 9 18 12 18 8 0 -4 8 -2 18 6 9 8 42 26 72 39 30 14
57 27 60 30 8 8 83 43 99 46 14 3 30 -8 59 -39 9 -9 21 -17 27 -17 5 0 23 -11
39 -25 16 -14 33 -25 37 -25 4 0 14 -6 21 -13 7 -7 42 -33 78 -57 36 -24 67
-47 68 -52 2 -4 9 -8 17 -8 17 0 36 -24 37 -47 1 -10 -3 -63 -7 -118 -5 -55
-8 -110 -9 -122 0 -13 -2 -23 -5 -23 -4 0 -6 -29 -6 -65 0 -36 -3 -65 -7 -65
-4 0 -7 -8 -6 -17 3 -37 -2 -64 -11 -58 -5 3 -12 1 -15 -4 -5 -8 72 -51 129
-72 76 -28 114 -41 117 -38 2 1 13 -3 26 -10 13 -7 31 -14 40 -16 9 -3 50 -13
90 -24 40 -10 75 -20 77 -20 3 -1 6 -1 8 -2 1 0 11 -2 22 -4 127 -25 146 -24
143 8 -1 12 12 47 29 79 17 31 29 59 26 62 -4 3 -1 6 5 6 6 0 16 16 22 35 6
19 15 35 20 35 5 0 11 13 15 30 4 16 14 34 23 40 9 5 13 10 9 10 -5 0 3 20 17
45 15 24 25 46 24 47 -1 2 4 12 12 23 13 17 26 21 78 20 34 -1 62 2 62 6 0 3
18 3 40 -1 22 -4 40 -5 40 -1 0 5 221 7 256 2 6 0 23 -26 39 -56 15 -30 32
-55 38 -55 6 0 8 -3 4 -6 -3 -4 5 -23 18 -43 14 -19 25 -41 25 -47 0 -7 4 -14
9 -16 5 -1 20 -25 35 -53 14 -27 36 -68 49 -90 13 -22 22 -47 20 -56 -7 -27
79 -14 220 33 51 17 97 31 102 33 10 2 22 7 99 39 21 9 43 13 49 9 5 -3 7 -1
4 4 -6 10 10 18 51 28 8 2 21 10 30 18 10 8 22 12 29 10 7 -2 18 5 25 16 7 12
19 21 26 21 9 0 6 9 -7 27 -11 16 -23 51 -26 78 -3 28 -9 70 -12 95 -3 25 -6
55 -6 68 -1 12 -5 22 -9 22 -4 0 -8 5 -8 11 0 5 6 7 13 3 9 -6 9 -4 1 7 -6 8
-16 51 -23 97 -14 97 -28 76 135 204 66 51 124 96 129 100 94 75 105 79 145
51 14 -10 26 -16 28 -15 5 6 72 -22 72 -30 0 -4 3 -7 8 -7 4 1 10 0 15 -1 4
-1 10 -3 15 -5 4 -1 24 -9 44 -18 21 -10 42 -17 48 -17 5 0 10 -4 10 -10 0 -5
9 -10 19 -10 11 0 23 -5 26 -10 3 -6 17 -10 31 -10 14 0 22 -4 19 -10 -3 -5 4
-10 15 -10 13 0 24 -8 27 -20 6 -22 18 -26 28 -10 4 6 11 8 16 5 5 -4 9 -2 9
3 0 5 10 20 23 34 85 94 206 273 300 445 20 37 22 73 4 73 -8 0 -61 51 -119
112 -58 62 -131 140 -162 173 -55 58 -60 73 -43 115 12 31 30 105 28 118 -1 6
3 12 9 12 6 0 10 6 8 13 -1 6 6 39 16 72 10 33 19 65 20 70 1 6 4 15 7 20 4 6
9 26 13 46 8 45 19 55 71 65 52 11 55 11 58 14 1 1 13 3 27 4 14 0 30 4 35 7
8 5 61 17 105 24 3 0 10 3 15 6 6 4 18 5 28 4 9 -2 17 2 17 8 0 5 3 8 6 5 3
-3 27 0 54 7 41 11 52 11 67 -1 26 -20 28 -18 27 23 0 21 2 43 5 48 7 13 9
367 2 380 -3 6 -6 33 -7 60 -1 28 -2 50 -3 50 -1 0 -4 14 -6 30 -9 76 -28 114
-41 82 -4 -12 -11 -14 -22 -8 -10 4 -39 11 -67 14 -48 6 -70 10 -125 22 -27 7
-39 8 -120 20 -30 4 -61 12 -67 17 -9 7 -13 7 -13 -1 0 -8 -5 -9 -19 -2 -10 6
-21 8 -24 5 -9 -9 -64 129 -59 149 1 4 -3 7 -9 7 -5 0 -8 4 -4 9 3 5 1 12 -5
16 -5 3 -10 12 -10 20 0 8 -5 26 -12 42 -6 15 -12 31 -13 36 -2 4 -4 10 -5 15
-2 4 -4 12 -5 17 -2 10 -5 19 -38 97 -16 37 -15 39 11 70 15 18 35 40 44 49
10 9 18 21 18 27 0 6 6 15 13 19 11 7 105 113 153 172 10 13 32 36 47 52 34
34 31 67 -8 113 -13 16 -27 37 -30 47 -4 11 -11 19 -16 19 -5 0 -9 7 -9 15 0
8 -4 15 -10 15 -5 0 -10 6 -10 13 0 7 -11 24 -25 39 -14 15 -25 32 -25 38 0 5
-5 10 -11 10 -5 0 -7 5 -3 12 4 7 3 8 -5 4 -6 -4 -14 0 -18 11 -4 10 -12 23
-17 29 -6 6 -31 35 -56 64 -56 66 -102 110 -115 110 -5 0 -71 -32 -145 -71
-74 -38 -140 -71 -146 -73 -7 -1 -18 -7 -25 -13 -8 -6 -37 -22 -66 -37 -52
-26 -83 -33 -83 -18 0 4 -13 13 -29 20 -25 11 -41 22 -88 62 -7 5 -16 10 -20
10 -4 0 -19 10 -33 21 -14 11 -63 46 -110 78 -84 56 -85 58 -83 97 1 51 12
199 14 199 1 0 7 52 13 130 3 33 5 60 6 60 1 0 3 23 5 50 l3 50 -46 19 c-26
10 -56 22 -67 26 -11 5 -38 14 -60 21 -22 7 -45 17 -52 22 -7 5 -17 6 -22 3
-5 -4 -12 -2 -15 3 -6 8 -73 26 -88 23 -5 -1 -8 3 -8 9 0 6 -6 9 -12 6 -7 -2
-23 -1 -34 4 -21 7 -96 21 -121 22 -7 0 -13 4 -13 8 0 4 -11 6 -24 5 -17 -1
-30 -11 -42 -36 -10 -19 -17 -38 -16 -42 1 -5 -3 -8 -9 -8 -5 0 -7 -4 -4 -10
3 -5 1 -10 -4 -10 -6 0 -11 -7 -11 -15 0 -8 -4 -15 -10 -15 -5 0 -10 -6 -10
-12 0 -7 -7 -26 -16 -43 -9 -16 -43 -83 -76 -147 l-60 -118 -42 -1 c-22 -1
-109 -3 -192 -4 -83 -1 -156 -5 -162 -9 -6 -3 -13 -2 -17 4 -4 6 -12 7 -24 1
-9 -5 -22 -7 -28 -3 -13 8 -48 65 -65 105 -7 15 -16 27 -21 27 -4 0 -5 5 -2
10 3 6 2 10 -3 10 -5 0 -15 14 -22 30 -7 17 -16 30 -21 30 -5 0 -8 3 -7 8 2 6
-52 107 -82 152 -6 8 -17 29 -26 46 -15 29 -19 31 -53 23 -48 -11 -51 -11 -51
5 0 23 -21 24 -105 3z m875 -1411 c70 -8 169 -33 237 -60 79 -31 157 -69 161
-78 2 -5 8 -8 12 -8 12 0 98 -58 140 -95 46 -41 140 -134 140 -140 0 -3 8 -14
18 -24 90 -99 203 -334 226 -466 18 -106 21 -132 20 -152 -1 -13 3 -23 7 -23
5 0 4 -11 -1 -25 -5 -14 -6 -25 -2 -25 9 0 7 -53 -3 -69 -3 -6 -1 -11 5 -11 6
0 8 -5 4 -12 -5 -7 -9 -29 -10 -48 -1 -19 -4 -46 -7 -60 -2 -14 -8 -45 -12
-70 -4 -25 -11 -49 -15 -55 -4 -5 -10 -27 -14 -47 -4 -21 -11 -38 -16 -38 -6
0 -10 -13 -10 -30 0 -16 -4 -30 -8 -30 -4 0 -13 -15 -20 -33 -14 -40 -102
-181 -137 -222 -48 -56 -122 -130 -155 -155 -18 -14 -38 -31 -45 -38 -8 -6
-16 -12 -20 -12 -3 0 -16 -9 -28 -21 -12 -11 -49 -34 -82 -50 -33 -17 -67 -34
-75 -39 -29 -17 -157 -61 -188 -65 -17 -2 -36 -6 -42 -10 -29 -18 -330 -27
-390 -11 -14 4 -34 9 -45 10 -74 13 -122 28 -212 67 -24 11 -45 19 -48 19 -3
0 -35 18 -71 40 -36 22 -68 40 -71 40 -2 0 -10 6 -18 12 -7 7 -32 29 -56 48
-66 53 -196 190 -181 190 4 0 2 4 -4 8 -15 10 -74 99 -74 111 0 6 -5 11 -11
11 -5 0 -7 5 -4 10 3 5 2 10 -3 10 -6 0 -18 23 -28 50 -10 28 -22 50 -26 50
-4 0 -7 3 -6 8 2 4 -2 21 -9 37 -22 57 -26 70 -28 85 -1 8 -7 34 -14 57 -6 23
-11 45 -10 50 1 4 0 10 -1 13 -13 31 -18 249 -7 325 14 99 36 196 50 213 5 6
7 12 3 12 -4 0 0 13 9 30 8 16 16 32 16 35 0 2 11 29 24 60 23 51 48 70 57 43
3 -9 75 -13 269 -15 289 -3 296 -3 354 -23 100 -34 163 -90 193 -174 11 -32
16 -56 10 -56 -7 0 -7 -4 0 -12 10 -14 9 -35 -9 -113 -13 -51 -14 -54 -66
-110 -30 -32 -125 -85 -154 -85 -8 0 -9 -3 0 -13 6 -8 7 -18 3 -22 -4 -5 -2
-5 5 -1 8 4 15 -2 19 -19 3 -14 11 -25 17 -25 6 0 8 -3 4 -6 -3 -3 5 -24 19
-45 13 -21 24 -43 24 -49 0 -5 4 -10 8 -10 4 0 13 -12 19 -27 12 -28 24 -50
101 -180 38 -65 44 -71 72 -69 33 2 47 12 51 36 3 20 -11 70 -20 70 -4 0 -13
16 -21 35 -8 19 -17 35 -22 35 -4 0 -8 5 -8 11 0 6 -9 23 -20 39 -11 15 -17
30 -13 34 3 3 1 6 -5 6 -7 0 -12 5 -12 11 0 6 -9 23 -20 39 -11 15 -17 30 -13
34 3 3 1 6 -5 6 -7 0 -12 7 -12 15 0 9 -6 18 -14 21 -12 5 -11 9 5 25 10 10
22 19 26 19 14 0 83 80 108 124 14 25 23 46 19 46 -4 0 -1 7 6 15 7 8 9 15 6
15 -4 0 -4 6 1 13 13 20 13 160 0 176 -10 12 -9 13 2 6 11 -6 12 -5 5 6 -5 8
-9 16 -10 19 -1 3 -5 20 -9 37 -4 18 -14 38 -21 44 -8 6 -14 17 -14 24 0 8
-11 22 -25 33 -13 11 -21 22 -18 26 3 3 -1 6 -9 6 -9 0 -18 4 -20 9 -3 7 -90
66 -95 63 -1 0 -26 9 -55 20 -47 18 -79 21 -278 24 -124 2 -256 4 -293 4 l-68
0 46 59 c42 56 175 196 175 185 0 -2 25 16 55 41 31 25 62 45 70 45 8 0 15 5
15 10 0 6 7 10 15 10 8 0 15 5 15 10 0 6 9 10 19 10 11 0 21 3 23 8 4 10 75
42 93 42 8 0 15 5 15 11 0 5 5 7 10 4 6 -4 16 -2 23 3 14 11 115 36 140 34 9
0 17 3 17 7 0 4 23 7 51 7 28 -1 53 2 55 5 4 7 155 4 224 -5z"/>
<path d="M2600 3183 c-20 -8 -30 -24 -30 -49 0 -46 16 -48 299 -49 146 0 271
-3 276 -7 6 -3 27 -8 48 -12 20 -4 37 -11 37 -16 0 -5 6 -7 13 -4 7 2 23 -5
35 -16 12 -11 22 -17 22 -13 0 4 16 -9 36 -28 42 -40 71 -97 79 -159 4 -24 9
-48 11 -52 2 -3 0 -9 -6 -13 -6 -4 -8 -10 -5 -15 3 -5 1 -11 -5 -15 -6 -4 -8
-10 -5 -15 15 -24 -79 -160 -110 -160 -7 0 -15 -4 -17 -8 -1 -4 -24 -17 -50
-28 l-47 -20 17 -34 c9 -19 19 -37 22 -40 4 -3 20 -30 37 -60 31 -57 55 -100
105 -185 16 -27 35 -64 43 -82 17 -36 62 -71 86 -66 18 4 39 43 35 64 -3 17
-36 82 -45 89 -4 3 -13 20 -20 38 -8 17 -18 32 -23 32 -6 0 -8 6 -5 14 3 8 -1
17 -9 20 -8 3 -14 12 -14 21 0 8 -5 15 -11 15 -5 0 -7 5 -4 10 3 6 1 10 -4 10
-6 0 -11 6 -11 13 0 7 -11 28 -24 48 -17 24 -21 40 -15 50 5 8 9 10 9 4 0 -7
3 -6 8 0 4 6 22 23 40 38 19 15 31 27 28 27 -3 0 5 11 17 24 40 43 43 48 53
81 1 6 8 28 15 50 16 51 19 138 5 147 -7 5 -7 8 2 8 8 0 10 5 5 13 -4 6 -9 23
-11 37 -6 43 -51 128 -88 165 -19 19 -37 35 -40 35 -3 0 -24 13 -47 28 -89 59
-134 66 -442 68 -154 1 -287 0 -295 -3z"/>
<path d="M1627 2977 c-13 -13 -17 -26 -12 -45 4 -15 9 -29 12 -32 2 -3 113 -6
246 -7 133 -1 251 -4 262 -7 11 -2 23 -5 26 -5 3 -1 16 -10 28 -20 34 -30 35
-96 2 -133 -32 -36 -32 -36 -338 -37 l-243 -1 0 -319 c0 -245 3 -322 13 -328
16 -10 37 -10 65 -1 16 6 21 4 16 -3 -5 -8 -1 -8 14 0 15 8 23 8 28 0 4 -8 9
-7 15 2 5 8 9 9 9 3 0 -11 51 -11 69 1 6 3 11 2 11 -3 0 -8 90 -5 99 3 2 3 5
81 5 173 l1 167 36 3 c28 2 38 -1 43 -15 8 -22 28 -56 45 -77 7 -9 10 -16 6
-16 -5 0 -1 -8 7 -17 8 -10 26 -39 38 -65 13 -27 27 -48 32 -48 4 0 8 -5 8
-10 0 -6 12 -29 28 -53 30 -46 63 -58 93 -31 26 23 15 58 -56 179 -20 33 -43
76 -53 95 -9 19 -21 40 -25 45 -10 12 -51 78 -52 85 -10 34 -16 36 -133 35
l-117 -1 -5 -174 -5 -175 -55 -1 c-30 0 -60 1 -65 3 -14 5 -15 63 -1 63 7 0 7
3 1 8 -12 9 -14 122 -2 122 4 0 5 5 1 12 -11 17 -12 158 -2 158 5 0 6 5 3 11
-9 14 -14 59 -6 60 3 1 105 3 226 5 247 5 255 5 249 16 -3 4 2 8 11 8 38 0
104 75 111 125 1 6 3 12 4 15 5 12 6 66 1 75 -3 6 -6 16 -7 23 -2 8 -6 21 -10
30 -4 9 -8 20 -8 24 -2 15 -57 60 -94 76 -31 13 -80 16 -296 17 -243 1 -261 0
-279 -18z"/>
<path d="M2593 2980 c-23 -18 -21 -59 2 -76 10 -7 97 -11 258 -11 212 0 247
-3 277 -18 19 -10 37 -19 39 -21 11 -10 11 -95 1 -114 -24 -44 -59 -49 -334
-47 -141 1 -257 0 -257 -3 -6 -25 -3 -647 3 -644 5 3 8 1 8 -4 0 -10 54 -7 72
4 6 4 9 3 6 -2 -4 -5 9 -9 27 -10 20 0 31 4 28 9 -4 6 -1 7 7 2 18 -11 51 -13
78 -3 16 5 21 5 16 -3 -5 -8 -1 -8 14 0 15 8 23 8 28 0 4 -8 9 -7 15 2 6 10 9
10 9 2 0 -7 6 -10 13 -7 11 4 13 40 12 162 0 86 1 165 3 174 3 13 13 17 39 15
31 -2 38 -8 70 -67 20 -36 41 -68 47 -72 6 -4 7 -8 3 -8 -5 0 1 -13 12 -29 12
-16 21 -34 21 -40 0 -6 3 -11 8 -11 4 0 18 -24 32 -54 19 -43 30 -56 53 -60
40 -8 64 7 63 41 -1 15 -5 34 -9 41 -5 6 -5 12 0 12 4 0 3 4 -2 8 -12 8 -69
104 -105 177 -14 28 -28 51 -32 53 -3 2 -19 27 -34 55 -14 29 -30 54 -35 57
-6 4 -211 5 -229 1 -3 0 -5 -74 -5 -163 1 -90 0 -168 -2 -174 -2 -6 -29 -10
-66 -10 -62 2 -62 2 -62 31 0 17 -4 36 -8 43 -5 7 -4 12 2 12 6 0 11 5 11 11
0 5 -4 7 -10 4 -5 -3 -8 0 -5 7 9 24 12 118 3 118 -5 0 -4 8 1 18 5 10 6 24 1
31 -4 8 -4 26 0 41 4 15 5 33 1 39 -4 7 -5 29 -2 49 l6 37 210 2 c229 2 248 3
285 23 35 18 80 61 80 77 0 7 4 13 8 13 5 0 9 6 10 13 0 6 3 37 6 67 8 90 -35
162 -115 197 -15 6 -30 9 -33 6 -3 -4 -6 -2 -6 3 0 6 -100 10 -259 10 -221 0
-262 -2 -278 -16z"/>
</g>
</svg>
