<?xml version="1.0" encoding="iso-8859-1"?>
<!-- Generator: Adobe Illustrator 16.0.0, SVG Export Plug-In . SVG Version: 6.00 Build 0)  -->
<!DOCTYPE svg PUBLIC "-//W3C//DTD SVG 1.1//EN" "http://www.w3.org/Graphics/SVG/1.1/DTD/svg11.dtd">
<svg version="1.1" id="Capa_1" xmlns="http://www.w3.org/2000/svg" xmlns:xlink="http://www.w3.org/1999/xlink" x="0px" y="0px"
	 width="159.438px" height="159.438px" viewBox="0 0 159.438 159.438" style="enable-background:new 0 0 159.438 159.438;"
	 xml:space="preserve">
<g>
	<path d="M157.824,54.937c-1.456-1.097-3.449-1.087-4.884,0.016L110.98,86.98L83.426,24.754c-1.309-2.933-6.104-2.933-7.412,0
		L48.149,87.708L6.555,54.989c-1.442-1.129-3.452-1.16-4.915-0.074c-1.469,1.084-2.025,3.017-1.366,4.72l28.901,74.664
		c0.604,1.561,2.104,2.584,3.773,2.584h93.54c1.677,0,3.169-1.018,3.771-2.584l28.903-74.664
		C159.822,57.942,159.268,56.02,157.824,54.937z M79.724,36.397l24.632,55.64L78.632,111.67l-23.91-18.794L79.724,36.397z
		 M44.769,95.35l-11.729,26.482L13.163,70.487L44.769,95.35z M38.823,128.783l12.519-28.266l20.643,16.231l-15.772,12.034H38.823z
		 M69.562,128.783l9.002-6.861l8.732,6.861H69.562z M100.111,128.562l-14.908-11.724l22.518-17.186l12.899,29.136h-20.245
		C100.295,128.709,100.206,128.641,100.111,128.562z M126.41,121.838l-12.055-27.243l32.078-24.487L126.41,121.838z"/>
</g>
<g>
</g>
<g>
</g>
<g>
</g>
<g>
</g>
<g>
</g>
<g>
</g>
<g>
</g>
<g>
</g>
<g>
</g>
<g>
</g>
<g>
</g>
<g>
</g>
<g>
</g>
<g>
</g>
<g>
</g>
</svg>
