<?xml version="1.0" encoding="UTF-8"?>
<svg width="809px" height="134px" viewBox="0 0 809 134" version="1.1" xmlns="http://www.w3.org/2000/svg" xmlns:xlink="http://www.w3.org/1999/xlink">
    <!-- Generator: Sketch 50.2 (55047) - http://www.bohemiancoding.com/sketch -->
    <title>KT_logo_iot_full</title>
    <desc>Created with Sketch.</desc>
    <defs></defs>
    <g id="KT_logo_iot_full" stroke="none" stroke-width="1" fill="none" fill-rule="evenodd">
        <polyline id="Fill-1" fill="#172031" points="181.733 1.772 193.91 1.772 193.91 36.62 226.876 1.772 241.825 1.772 213.016 31.57 243.111 71.071 228.361 71.071 204.701 39.886 193.91 50.974 193.91 71.071 181.733 71.071 181.733 1.772"></polyline>
        <polyline id="Fill-2" fill="#172031" points="255.486 1.772 267.663 1.772 267.663 59.983 304.095 59.983 304.095 71.071 255.486 71.071 255.486 1.772"></polyline>
        <polygon id="Fill-3" fill="#172031" points="321.44 71.071 333.616 71.071 333.616 1.772 321.44 1.772"></polygon>
        <polyline id="Fill-4" fill="#172031" points="353.11 1.772 365.286 1.772 365.286 36.62 398.253 1.772 413.201 1.772 384.393 31.57 414.488 71.071 399.737 71.071 376.077 39.886 365.286 50.974 365.286 71.071 353.11 71.071 353.11 1.772"></polyline>
        <path d="M471.454,43.549 L459.475,15.83 L447.595,43.549 L471.454,43.549 Z M454.03,1.277 L465.316,1.277 L495.808,71.071 L482.938,71.071 L475.909,54.34 L443.14,54.34 L436.013,71.071 L423.538,71.071 L454.03,1.277 Z" id="Fill-5" fill="#172031"></path>
        <polyline id="Fill-6" fill="#172031" points="558.374 13.057 536.397 13.057 536.397 1.772 592.628 1.772 592.628 13.057 570.651 13.057 570.651 71.071 558.374 71.071 558.374 13.057"></polyline>
        <path d="M672.719,36.421 C672.719,16.72 687.47,0.583 708.458,0.583 C721.229,0.583 728.95,5.039 735.583,11.374 L727.763,20.383 C722.219,15.235 716.279,11.77 708.359,11.77 C695.093,11.77 685.489,22.661 685.489,36.421 C685.489,49.984 695.093,61.072 708.359,61.072 C716.872,61.072 722.318,57.607 728.257,52.063 L736.078,59.983 C728.852,67.506 720.932,72.258 707.963,72.258 C687.767,72.258 672.719,56.518 672.719,36.421" id="Fill-7" fill="#172031"></path>
        <polyline id="Fill-8" fill="#172031" points="750.83 1.772 763.007 1.772 763.007 30.581 796.072 30.581 796.072 1.772 808.249 1.772 808.249 71.071 796.072 71.071 796.072 41.866 763.007 41.866 763.007 71.071 750.83 71.071 750.83 1.772"></polyline>
        <polygon id="Fill-9" fill="#172031" points="607.479 41.569 654.404 41.569 654.404 30.679 607.479 30.679"></polygon>
        <polygon id="Fill-10" fill="#172031" points="607.479 71.071 659.354 71.071 659.354 60.181 607.479 60.181"></polygon>
        <polygon id="Fill-11" fill="#172031" points="607.479 12.662 658.859 12.662 658.859 1.772 607.479 1.772"></polygon>
        <path d="M515.922,41.539 C513.101,41.539 510.805,39.243 510.805,36.42 C510.805,33.598 513.101,31.302 515.922,31.302 C518.744,31.302 521.04,33.598 521.04,36.42 C521.04,39.243 518.744,41.539 515.922,41.539" id="Fill-12" fill="#2E83B9"></path>
        <polygon id="Fill-13" fill="#2E83B9" points="59.184 33.459 70.714 33.459 70.714 1.25 59.184 1.25"></polygon>
        <polygon id="Fill-14" fill="#2E83B9" points="100.541 74.816 132.75 74.816 132.75 63.292 100.541 63.292"></polygon>
        <polyline id="Fill-15" fill="#2E83B9" points="86.046 39.811 108.816 17.035 116.971 25.184 94.195 47.96 86.046 39.811"></polyline>
        <polyline id="Fill-16" fill="#2E83B9" points="0 124.466 46.852 77.609 0.552 77.609 0.552 64.123 69.883 64.123 69.883 133.449 56.391 133.449 56.391 87.148 9.546 134 0 124.466"></polyline>
        <polyline id="Fill-17" fill="#2E83B9" points="86.046 98.304 94.195 90.149 116.97 112.924 108.816 121.08 86.046 98.304"></polyline>
        <polyline id="Fill-18" fill="#2E83B9" points="12.927 25.184 21.082 17.035 43.858 39.811 35.702 47.96 12.927 25.184"></polyline>
        <path d="M180.744,119.535 C180.744,112.24 186.102,105.781 194.08,105.781 C198.564,105.781 201.338,107.073 203.997,109.314 L202.059,111.593 C200.007,109.808 197.728,108.554 193.966,108.554 C188.077,108.554 183.86,113.532 183.86,119.535 C183.86,125.879 187.925,130.591 194.384,130.591 C197.424,130.591 200.236,129.413 202.059,127.931 L202.059,121.32 L193.966,121.32 L193.966,118.623 L204.947,118.623 L204.947,129.223 C202.477,131.426 198.754,133.289 194.27,133.289 C185.912,133.289 180.744,127.209 180.744,119.535" id="Fill-19" fill="#2E83B9"></path>
        <polyline id="Fill-20" fill="#2E83B9" points="219.504 106.237 222.506 106.237 222.506 130.059 237.476 130.059 237.476 132.833 219.504 132.833 219.504 106.237"></polyline>
        <path d="M272.131,119.535 C272.131,113.494 267.724,108.554 261.645,108.554 C255.566,108.554 251.235,113.417 251.235,119.535 C251.235,125.576 255.642,130.515 261.721,130.515 C267.8,130.515 272.131,125.652 272.131,119.535 Z M248.119,119.535 C248.119,112.202 253.628,105.781 261.721,105.781 C269.814,105.781 275.247,112.125 275.247,119.535 C275.247,126.868 269.737,133.289 261.645,133.289 C253.552,133.289 248.119,126.944 248.119,119.535 Z" id="Fill-21" fill="#2E83B9"></path>
        <path d="M301.279,130.135 C305.306,130.135 307.814,128.349 307.814,125.31 C307.814,122.422 305.382,120.75 300.747,120.75 L292.35,120.75 L292.35,130.135 L301.279,130.135 Z M300.215,118.09 C303.824,118.09 306.332,116.457 306.332,113.265 C306.332,110.644 304.242,108.934 300.443,108.934 L292.35,108.934 L292.35,118.09 L300.215,118.09 Z M289.387,106.237 L300.709,106.237 C303.748,106.237 306.18,107.073 307.662,108.592 C308.764,109.732 309.371,111.138 309.371,112.923 C309.371,116.381 307.244,118.166 305.154,119.079 C308.308,120.029 310.854,121.852 310.854,125.576 C310.854,130.135 307.016,132.833 301.203,132.833 L289.387,132.833 L289.387,106.237 Z" id="Fill-22" fill="#2E83B9"></path>
        <path d="M341.862,123.106 L335.82,109.541 L329.741,123.106 L341.862,123.106 Z M334.452,106.046 L337.265,106.046 L349.385,132.833 L346.155,132.833 L343.039,125.803 L328.564,125.803 L325.41,132.833 L322.332,132.833 L334.452,106.046 Z" id="Fill-23" fill="#2E83B9"></path>
        <polyline id="Fill-24" fill="#2E83B9" points="362.422 106.237 365.423 106.237 365.423 130.059 380.393 130.059 380.393 132.833 362.422 132.833 362.422 106.237"></polyline>
        <polygon id="Fill-25" fill="#2E83B9" points="413.189 132.833 416.191 132.833 416.191 106.237 413.189 106.237"></polygon>
        <path d="M454.605,119.535 C454.605,113.494 450.197,108.554 444.118,108.554 C438.039,108.554 433.708,113.417 433.708,119.535 C433.708,125.576 438.115,130.515 444.195,130.515 C450.274,130.515 454.605,125.652 454.605,119.535 Z M430.593,119.535 C430.593,112.202 436.102,105.781 444.195,105.781 C452.287,105.781 457.721,112.125 457.721,119.535 C457.721,126.868 452.211,133.289 444.118,133.289 C436.026,133.289 430.593,126.944 430.593,119.535 Z" id="Fill-26" fill="#2E83B9"></path>
        <polyline id="Fill-27" fill="#2E83B9" points="477.065 109.01 468.136 109.01 468.136 106.237 489.033 106.237 489.033 109.01 480.105 109.01 480.105 132.833 477.065 132.833 477.065 109.01"></polyline>
        <path d="M519.892,128.958 L521.753,126.753 C524.528,129.261 527.187,130.515 530.872,130.515 C534.444,130.515 536.799,128.615 536.799,125.917 C536.799,123.448 535.47,122.042 529.884,120.865 C523.767,119.535 520.955,117.559 520.955,113.114 C520.955,108.934 524.641,105.857 529.695,105.857 C533.57,105.857 536.343,106.958 539.041,109.124 L537.293,111.442 C534.823,109.428 532.354,108.554 529.618,108.554 C526.161,108.554 523.957,110.454 523.957,112.923 C523.957,115.431 525.325,116.836 531.176,118.09 C537.104,119.382 539.839,121.548 539.839,125.69 C539.839,130.249 536.039,133.212 530.758,133.212 C526.541,133.212 523.083,131.807 519.892,128.958" id="Fill-28" fill="#2E83B9"></path>
        <path d="M576.584,119.535 C576.584,113.494 572.177,108.554 566.098,108.554 C560.019,108.554 555.688,113.417 555.688,119.535 C555.688,125.576 560.095,130.515 566.174,130.515 C572.253,130.515 576.584,125.652 576.584,119.535 Z M552.572,119.535 C552.572,112.202 558.081,105.781 566.174,105.781 C574.267,105.781 579.7,112.125 579.7,119.535 C579.7,126.868 574.191,133.289 566.098,133.289 C558.005,133.289 552.572,126.944 552.572,119.535 Z" id="Fill-29" fill="#2E83B9"></path>
        <polyline id="Fill-30" fill="#2E83B9" points="593.839 106.237 596.84 106.237 596.84 130.059 611.81 130.059 611.81 132.833 593.839 132.833 593.839 106.237"></polyline>
        <path d="M623.974,121.7 L623.974,106.237 L626.975,106.237 L626.975,121.51 C626.975,127.248 630.015,130.477 635.106,130.477 C640.007,130.477 643.122,127.513 643.122,121.7 L643.122,106.237 L646.124,106.237 L646.124,121.472 C646.124,129.223 641.679,133.25 635.029,133.25 C628.457,133.25 623.974,129.223 623.974,121.7" id="Fill-31" fill="#2E83B9"></path>
        <polyline id="Fill-32" fill="#2E83B9" points="668.052 109.01 659.123 109.01 659.123 106.237 680.021 106.237 680.021 109.01 671.092 109.01 671.092 132.833 668.052 132.833 668.052 109.01"></polyline>
        <polygon id="Fill-33" fill="#2E83B9" points="693.703 132.833 696.705 132.833 696.705 106.237 693.703 106.237"></polygon>
        <path d="M735.119,119.535 C735.119,113.494 730.712,108.554 724.633,108.554 C718.554,108.554 714.223,113.417 714.223,119.535 C714.223,125.576 718.63,130.515 724.709,130.515 C730.788,130.515 735.119,125.652 735.119,119.535 Z M711.108,119.535 C711.108,112.202 716.616,105.781 724.709,105.781 C732.802,105.781 738.236,112.125 738.236,119.535 C738.236,126.868 732.726,133.289 724.633,133.289 C716.54,133.289 711.108,126.944 711.108,119.535 Z" id="Fill-34" fill="#2E83B9"></path>
        <polyline id="Fill-35" fill="#2E83B9" points="752.375 106.237 755.187 106.237 771.942 127.551 771.942 106.237 774.867 106.237 774.867 132.833 772.474 132.833 755.3 111.024 755.3 132.833 752.375 132.833 752.375 106.237"></polyline>
        <path d="M788.437,128.958 L790.298,126.753 C793.072,129.261 795.732,130.515 799.417,130.515 C802.988,130.515 805.344,128.615 805.344,125.917 C805.344,123.448 804.015,122.042 798.429,120.865 C792.312,119.535 789.5,117.559 789.5,113.114 C789.5,108.934 793.186,105.857 798.239,105.857 C802.114,105.857 804.888,106.958 807.586,109.124 L805.838,111.442 C803.368,109.428 800.899,108.554 798.163,108.554 C794.706,108.554 792.502,110.454 792.502,112.923 C792.502,115.431 793.87,116.836 799.721,118.09 C805.649,119.382 808.384,121.548 808.384,125.69 C808.384,130.249 804.584,133.212 799.303,133.212 C795.086,133.212 791.628,131.807 788.437,128.958" id="Fill-36" fill="#2E83B9"></path>
    </g>
</svg>